<svg xmlns="http://www.w3.org/2000/svg" viewBox="0 0 500 500"><g id="freepik--Car--inject-2"><path d="M358.78,218.69l-10.21-38.27c-8.45-28.93-34.94-32-34.94-32-71.31-5.45-121.17-.89-132.5.34-20.1.89-30,13.11-35.38,28.92l-13.84,41Z" style="fill:#FFFFFF"></path><path d="M359.43,219.19H131.22l14.05-41.67c6.38-18.91,18.1-28.48,35.84-29.26,13.29-1.44,62.22-5.71,132.56-.34a44.76,44.76,0,0,1,35.38,32.36Zm-226.82-1H358.13l-10-37.64c-8.26-28.28-34.26-31.61-34.52-31.64-70.23-5.36-119.09-1.09-132.39.34-17.3.77-28.73,10.12-35,28.59Z" style="fill:#263238"></path><path d="M333.49,205c7,1,12.83-4.93,10.86-11.11l-5.06-15.91c-5.86-21.85-31.81-24.41-31.81-24.41-64.88-4.15-110.26-.67-120.57.26-18.3.67-27.35,10-32.2,22.06l-6.94,17.23c-2.53,6.3,3.35,12.74,10.67,11.68l49.8-7.24a255.83,255.83,0,0,1,73.16,0Z" style="fill:#263238"></path><path d="M335.07,205.56a11.63,11.63,0,0,1-1.65-.11L281.33,198a254.85,254.85,0,0,0-73,0l-49.8,7.23a10.65,10.65,0,0,1-9.93-3.78,8.47,8.47,0,0,1-1.27-8.58l6.93-17.23c5.82-14.45,16.5-21.77,32.65-22.37,12.09-1.1,56.62-4.36,120.63-.26.28,0,26.37,2.85,32.25,24.78l5.05,15.89a8.5,8.5,0,0,1-1.71,8.24A10.41,10.41,0,0,1,335.07,205.56ZM245,194.36A256.14,256.14,0,0,1,281.47,197l52.09,7.49a9.62,9.62,0,0,0,8.79-3.17,7.55,7.55,0,0,0,1.52-7.3l-5.06-15.91c-5.71-21.28-31.12-24-31.37-24.06-63.92-4.09-108.38-.84-120.49.26-15.74.58-26.12,7.69-31.78,21.75l-6.93,17.22a7.5,7.5,0,0,0,1.13,7.6,9.63,9.63,0,0,0,9,3.4l49.8-7.23A257,257,0,0,1,245,194.36Z" style="fill:#263238"></path><path d="M266.94,151.76l-46.86,44.33q6.18-.61,12.37-.91l46.16-43.09C274.61,152,270.73,151.85,266.94,151.76Z" style="fill:#fff"></path><path d="M218.68,196.73l48.07-45.47h.2c4,.09,7.86.2,11.68.33l1.2,0-47.17,44h-.19c-4.09.2-8.24.5-12.34.9Zm48.46-44.46-45.66,43.18c3.58-.33,7.2-.59,10.76-.76l45.14-42.14C274,152.44,270.67,152.35,267.14,152.27Z" style="fill:#263238"></path><path d="M307.49,153.52c-4.35-.28-8.59-.52-12.75-.73l-47.68,42.09a254.93,254.93,0,0,1,34.34,2.58L328.53,162C319.09,154.67,307.49,153.52,307.49,153.52Z" style="fill:#fff"></path><path d="M281.53,198l-.2,0a255.59,255.59,0,0,0-34.28-2.58h-1.3l48.81-43.09h.2c4.33.22,8.62.46,12.76.73h0c.12,0,11.87,1.25,21.31,8.56l.52.4Zm-33.17-3.6a257.47,257.47,0,0,1,32.91,2.55l46.44-35A45.86,45.86,0,0,0,307.44,154c-4.06-.26-8.27-.51-12.52-.72Z" style="fill:#263238"></path><path d="M335.08,206.57a13.62,13.62,0,0,1-1.8-.13L281.19,199a253.92,253.92,0,0,0-72.73.05l-49.81,7.23a11.64,11.64,0,0,1-10.85-4.15,9.55,9.55,0,0,1-1.42-9.57l6.93-17.23c6-14.86,17-22.39,33.54-23,12.06-1.09,56.66-4.36,120.73-.26.32,0,27.1,2.93,33.15,25.52l5,15.85a9.51,9.51,0,0,1-1.9,9.19A11.45,11.45,0,0,1,335.08,206.57Zm-1.37-3.1a8.74,8.74,0,0,0,7.88-2.83,6.59,6.59,0,0,0,1.33-6.34l-5.06-15.92c-2.33-8.65-8.11-15.17-17.22-19.45a46,46,0,0,0-13.3-3.92c-63.81-4.08-108.21-.83-120.3.26-15.57.58-25.37,7.29-30.94,21.13l-6.94,17.23a6.51,6.51,0,0,0,1,6.6,8.62,8.62,0,0,0,8.06,3L208,196a256.94,256.94,0,0,1,73.58-.05Z" style="fill:#fff"></path><path d="M335.08,207.07a13.08,13.08,0,0,1-1.87-.14l-52.09-7.49a254,254,0,0,0-72.59.05l-49.81,7.24a12.15,12.15,0,0,1-11.32-4.34,10.05,10.05,0,0,1-1.48-10.07l6.93-17.22c6.06-15.07,17.18-22.7,34-23.32,12.1-1.1,56.65-4.36,120.78-.26.29,0,27.44,2.89,33.61,25.89l5,15.83a10,10,0,0,1-2,9.66A12,12,0,0,1,335.08,207.07ZM245,195.86a254.62,254.62,0,0,1,36.25,2.59l52.09,7.49a11.16,11.16,0,0,0,10.14-3.68,9,9,0,0,0,1.81-8.72l-5-15.85c-6-22.35-32.46-25.15-32.73-25.17-64-4.1-108.53-.84-120.63.26-16.4.6-27.22,8-33.12,22.69l-6.93,17.22a9.06,9.06,0,0,0,1.34,9.08,11.16,11.16,0,0,0,10.39,4l49.81-7.24A255.25,255.25,0,0,1,245,195.86Zm90,8.2a9.38,9.38,0,0,1-1.39-.1l-52.09-7.49a256.69,256.69,0,0,0-73.44.06l-49.81,7.23a9.15,9.15,0,0,1-8.53-3.22,7,7,0,0,1-1.06-7.1l6.93-17.22c5.66-14.05,15.63-20.86,31.39-21.45,12.07-1.09,56.5-4.34,120.35-.26a46.92,46.92,0,0,1,13.48,4c9.25,4.35,15.13,11,17.49,19.78l5.05,15.9A7,7,0,0,1,342,201,9.08,9.08,0,0,1,335,204.06Zm-90-11.2a257.58,257.58,0,0,1,36.67,2.62l52.1,7.49a8.21,8.21,0,0,0,7.43-2.65,6.09,6.09,0,0,0,1.23-5.87l-5.06-15.91c-2.28-8.51-8-14.95-17-19.16a45.22,45.22,0,0,0-13.13-3.87c-63.76-4.08-108.12-.83-120.2.26-15.35.57-25,7.19-30.53,20.82l-6.93,17.22a6,6,0,0,0,.92,6.11,8.13,8.13,0,0,0,7.6,2.85l49.8-7.23A257.28,257.28,0,0,1,245,192.86Z" style="fill:#263238"></path><polygon points="113.97 355.19 153.18 360.36 330.26 360.36 373.35 355.62 373.35 347 114.4 347 113.97 355.19" style="fill:#263238"></polygon><path d="M153.18,360.86l-39.73-5.24.48-9.12H373.85v9.57l-43.53,4.78Zm-38.68-6.11,38.75,5.11h177l42.59-4.69V347.5h-258Z" style="fill:#263238"></path><path d="M365.62,344.42h42.12a0,0,0,0,1,0,0v45.07a10.08,10.08,0,0,1-10.08,10.08h-22a10.08,10.08,0,0,1-10.08-10.08V344.42A0,0,0,0,1,365.62,344.42Z" style="fill:#263238"></path><path d="M397.67,400.06h-22a10.59,10.59,0,0,1-10.58-10.57V343.92h43.12v45.57A10.58,10.58,0,0,1,397.67,400.06Zm-31.55-55.14v44.57a9.59,9.59,0,0,0,9.58,9.57h22a9.58,9.58,0,0,0,9.57-9.57V344.92Z" style="fill:#263238"></path><path d="M83.43,344.42h42.12a0,0,0,0,1,0,0v45.07a10.08,10.08,0,0,1-10.08,10.08h-22a10.08,10.08,0,0,1-10.08-10.08V344.42A0,0,0,0,1,83.43,344.42Z" style="fill:#263238"></path><path d="M115.48,400.06h-22a10.59,10.59,0,0,1-10.58-10.57V343.92h43.12v45.57A10.58,10.58,0,0,1,115.48,400.06ZM83.93,344.92v44.57a9.59,9.59,0,0,0,9.58,9.57h22a9.58,9.58,0,0,0,9.57-9.57V344.92Z" style="fill:#263238"></path><path d="M119.57,219s42.13-21,125.33-22.56,128.45,25.57,128.45,25.57V333.27H119.57Z" style="fill:#FFFFFF"></path><path d="M373.85,333.77H119.07v-115l.28-.14c.42-.21,43.18-21.05,125.54-22.61s128.26,25.37,128.71,25.64l.25.15Zm-253.78-1H372.85V222.34c-3.7-2.11-48.93-26.86-127.94-25.36-78.65,1.49-121,20.58-124.84,22.37Z" style="fill:#263238"></path><path d="M135.07,235.84s48.1,24.21,106,22.66,130.88-17,130.88-17v91.77H132.8Z" style="fill:#263238"></path><path d="M372.4,333.77H132.29l2.3-98.74.7.36c.48.24,48.67,24.14,105.71,22.61s130.06-16.83,130.79-17l.61-.13Zm-239.09-1H371.4V242.12C364.24,243.59,295.49,257.53,241,259c-53.54,1.44-99.3-19.43-105.48-22.38Z" style="fill:#263238"></path><path d="M104.06,204.08h0a6.7,6.7,0,0,1,6.7,6.7v5.79a0,0,0,0,1,0,0H97.36a0,0,0,0,1,0,0v-5.79a6.7,6.7,0,0,1,6.7-6.7Z" style="fill:#263238"></path><path d="M111.26,217.07H96.86v-6.29a7.2,7.2,0,0,1,14.4,0Zm-13.4-1h12.4v-5.29a6.2,6.2,0,0,0-12.4,0Z" style="fill:#263238"></path><rect x="97.36" y="212" width="13.4" height="4.57" style="fill:#FFFFFF"></rect><path d="M111.26,217.07H96.86V211.5h14.4Zm-13.4-1h12.4V212.5H97.86Z" style="fill:#263238"></path><path d="M104.54,213.93h0a39.14,39.14,0,0,1,39.14,39.14v88.6a0,0,0,0,1,0,0H65.41a0,0,0,0,1,0,0v-88.6A39.14,39.14,0,0,1,104.54,213.93Z" style="fill:#FFFFFF"></path><path d="M144.18,342.17H64.91v-89.1a39.64,39.64,0,1,1,79.27,0Zm-78.27-1h77.27v-88.1a38.64,38.64,0,1,0-77.27,0Z" style="fill:#263238"></path><path d="M65.41,334.29l.6,7.38h77.67V274.86c-8.88-4.9-25.5-12.58-43.17-13a51.43,51.43,0,0,0-35.1,12.41Z" style="fill:#263238"></path><path d="M144.18,342.17H65.55l-.64-7.88V274.08l.17-.15a52.38,52.38,0,0,1,35.44-12.53c18,.39,34.9,8.33,43.4,13l.26.15Zm-77.71-1h76.71v-66c-8.5-4.67-25.12-12.38-42.68-12.76a51.2,51.2,0,0,0-34.59,12.14v59.73Z" style="fill:#263238"></path><path d="M99.37,221.67s14.74-2.27,24.37,4,15.86,21,15.86,21l-10.76-5.67,6.8,10.2-15.87,5.67Z" style="fill:#fff"></path><circle cx="95.63" cy="246.82" r="27.58" transform="translate(-87.17 55.39) rotate(-22.5)" style="fill:#fff"></circle><path d="M95.63,274.9a28.08,28.08,0,1,1,28.08-28.08A28.11,28.11,0,0,1,95.63,274.9Zm0-55.16a27.08,27.08,0,1,0,27.08,27.08A27.1,27.1,0,0,0,95.63,219.74Z" style="fill:#263238"></path><circle cx="94.32" cy="249.88" r="21.03" transform="translate(-149.07 139.88) rotate(-45)" style="fill:#fff"></circle><path d="M94.32,271.42a21.54,21.54,0,1,1,21.53-21.54A21.56,21.56,0,0,1,94.32,271.42Zm0-42.07a20.54,20.54,0,1,0,20.53,20.53A20.55,20.55,0,0,0,94.32,229.35Z" style="fill:#263238"></path><circle cx="96.07" cy="291.91" r="10.53" transform="translate(-210.38 268.96) rotate(-67.5)" style="fill:#fff"></circle><path d="M96.07,302.94a11,11,0,1,1,11-11A11,11,0,0,1,96.07,302.94Zm0-21.06a10,10,0,1,0,10,10A10,10,0,0,0,96.07,281.88Z" style="fill:#263238"></path><circle cx="96.07" cy="291.91" r="8.32" transform="translate(-178.27 153.43) rotate(-45)" style="fill:#fff"></circle><path d="M96.07,300.72a8.82,8.82,0,1,1,8.82-8.81A8.82,8.82,0,0,1,96.07,300.72Zm0-16.63a7.82,7.82,0,1,0,7.82,7.82A7.82,7.82,0,0,0,96.07,284.09Z" style="fill:#263238"></path><circle cx="150.33" cy="304.16" r="18.82" transform="translate(-171.05 195.39) rotate(-45)" style="fill:#fff"></circle><path d="M150.33,323.49a19.33,19.33,0,1,1,19.32-19.32A19.34,19.34,0,0,1,150.33,323.49Zm0-37.65a18.33,18.33,0,1,0,18.32,18.33A18.34,18.34,0,0,0,150.33,285.84Z" style="fill:#263238"></path><circle cx="150.33" cy="304.16" r="14.87" style="fill:#fff"></circle><path d="M150.33,319.53a15.37,15.37,0,1,1,15.36-15.36A15.38,15.38,0,0,1,150.33,319.53Zm0-29.73a14.37,14.37,0,1,0,14.36,14.37A14.38,14.38,0,0,0,150.33,289.8Z" style="fill:#263238"></path><path d="M390.38,204.08h0a6.7,6.7,0,0,1,6.7,6.7v5.79a0,0,0,0,1,0,0h-13.4a0,0,0,0,1,0,0v-5.79A6.7,6.7,0,0,1,390.38,204.08Z" style="fill:#263238"></path><path d="M397.58,217.07h-14.4v-6.29a7.2,7.2,0,0,1,14.4,0Zm-13.4-1h12.4v-5.29a6.2,6.2,0,0,0-12.4,0Z" style="fill:#263238"></path><rect x="383.68" y="212" width="13.4" height="4.57" style="fill:#FFFFFF"></rect><path d="M397.58,217.07h-14.4V211.5h14.4Zm-13.4-1h12.4V212.5h-12.4Z" style="fill:#263238"></path><path d="M350,213.93h78.27a0,0,0,0,1,0,0v88.6a39.14,39.14,0,0,1-39.14,39.14h0A39.14,39.14,0,0,1,350,302.54v-88.6A0,0,0,0,1,350,213.93Z" transform="translate(778.31 555.6) rotate(180)" style="fill:#FFFFFF"></path><path d="M428.79,342.17H349.52v-89.1a39.64,39.64,0,1,1,79.27,0Zm-78.27-1h77.27v-88.1a38.64,38.64,0,1,0-77.27,0Z" style="fill:#263238"></path><path d="M428.29,270.39c-5-6.83-13.39-15.83-24.1-18.12-15.86-3.4-23.79,7.93-34.56,13s-19.26,1.13-19.26,1.13l-.35.48v74.76h78.27Z" style="fill:#263238"></path><path d="M428.79,342.17H349.52V266.75l.68-.95.38.18c.08,0,8.43,3.8,18.84-1.14a63.94,63.94,0,0,0,8.79-5.42c7.17-5,14.58-10.11,26.09-7.64,10.74,2.3,19.19,11.23,24.4,18.31l.09.14Zm-78.27-1h77.27V270.55c-5.11-6.92-13.34-15.57-23.7-17.8-11.08-2.37-18.31,2.65-25.31,7.49a64.09,64.09,0,0,1-8.94,5.51c-9.69,4.59-17.49,2-19.3,1.3l0,0Z" style="fill:#263238"></path><circle cx="398.06" cy="246.82" r="27.58" transform="translate(-57.94 353.77) rotate(-45)" style="fill:#fff"></circle><path d="M398.06,274.9a28.08,28.08,0,1,1,28.08-28.08A28.11,28.11,0,0,1,398.06,274.9Zm0-55.16a27.08,27.08,0,1,0,27.08,27.08A27.1,27.1,0,0,0,398.06,219.74Z" style="fill:#263238"></path><circle cx="399.38" cy="249.88" r="21.03" transform="translate(-46.41 97.5) rotate(-13.16)" style="fill:#fff"></circle><path d="M399.38,271.42a21.54,21.54,0,1,1,21.53-21.54A21.56,21.56,0,0,1,399.38,271.42Zm0-42.07a20.54,20.54,0,1,0,20.53,20.53A20.55,20.55,0,0,0,399.38,229.35Z" style="fill:#263238"></path><circle cx="397.63" cy="291.91" r="10.53" transform="translate(-81.13 173.12) rotate(-22.35)" style="fill:#fff"></circle><path d="M397.63,302.94a11,11,0,1,1,11-11A11,11,0,0,1,397.63,302.94Zm0-21.06a10,10,0,1,0,10,10A10,10,0,0,0,397.63,281.88Z" style="fill:#263238"></path><circle cx="397.63" cy="291.91" r="8.32" transform="translate(45.65 637.49) rotate(-80.76)" style="fill:#fff"></circle><path d="M397.63,300.72a8.82,8.82,0,1,1,8.81-8.81A8.82,8.82,0,0,1,397.63,300.72Zm0-16.63a7.82,7.82,0,1,0,7.81,7.82A7.83,7.83,0,0,0,397.63,284.09Z" style="fill:#263238"></path><circle cx="343.37" cy="304.16" r="18.82" transform="translate(-37.55 559.74) rotate(-75.39)" style="fill:#fff"></circle><path d="M343.37,323.49a19.33,19.33,0,1,1,19.32-19.32A19.35,19.35,0,0,1,343.37,323.49Zm0-37.65a18.33,18.33,0,1,0,18.32,18.33A18.35,18.35,0,0,0,343.37,285.84Z" style="fill:#263238"></path><circle cx="343.37" cy="304.16" r="14.87" style="fill:#fff"></circle><path d="M343.37,319.53a15.37,15.37,0,1,1,15.37-15.36A15.39,15.39,0,0,1,343.37,319.53Zm0-29.73a14.37,14.37,0,1,0,14.37,14.37A14.38,14.38,0,0,0,343.37,289.8Z" style="fill:#263238"></path><path d="M301.37,214c-7.64-5.81-55.13-17.51-55.13-17.51S198.17,208.65,190.19,214c-6,4-6.13,7.44-5.26,21s6.57,97.62,6.57,97.62H300.06s5.69-84.05,6.57-97.62S307.94,219,301.37,214Z" style="fill:#fff"></path><path d="M300.53,333.12H191l0-.47c-.06-.84-5.7-84.2-6.57-97.62s-.84-17.23,5.48-21.46c8-5.32,54.24-17.08,56.21-17.57l.12,0,.12,0c1.94.47,47.68,11.78,55.32,17.59,6.52,5,6.35,7.54,5.54,19.92l-.1,1.52c-.86,13.42-6.5,96.78-6.56,97.62Zm-108.56-1H299.59c.46-6.77,5.71-84.26,6.54-97.15l.1-1.53c.79-12.21.94-14.41-5.16-19.05h0c-7.29-5.54-52.16-16.73-54.83-17.39-2.69.68-48.15,12.31-55.78,17.41-5.64,3.77-5.93,6.56-5,20.56C186.26,247.86,191.51,325.35,192,332.12Z" style="fill:#263238"></path><path d="M184.93,235c.88,13.57,6.57,97.62,6.57,97.62h54.74V196.48S198.17,208.65,190.19,214C184.19,218,184.06,221.43,184.93,235Z" style="fill:#263238"></path><path d="M246.74,333.12H191l0-.47c-.06-.84-5.7-84.2-6.57-97.62s-.84-17.23,5.48-21.46c8-5.32,54.24-17.08,56.21-17.57l.62-.16Zm-54.77-1h53.77v-135c-5.66,1.45-48,12.38-55.28,17.29-5.64,3.77-5.93,6.56-5,20.56h0C186.26,247.86,191.51,325.35,192,332.12Z" style="fill:#263238"></path><polygon points="244.8 292.5 244.8 275.79 194.81 275.79 195.46 292.5 244.8 292.5" style="fill:#d1d1d1"></polygon><path d="M245.3,293H195l-.69-17.71h51Zm-49.36-1H244.3V276.29h-49Z" style="fill:#263238"></path><polygon points="244.8 238.1 193.33 238.1 193.99 254.81 244.8 254.81 244.8 238.1" style="fill:#d1d1d1"></polygon><path d="M245.3,255.31H193.51l-.7-17.71H245.3Zm-50.83-1H244.3V238.6H193.85Z" style="fill:#263238"></path><polygon points="244.8 273.66 244.8 256.94 194.07 256.94 194.72 273.66 244.8 273.66" style="fill:#d1d1d1"></polygon><path d="M245.3,274.16H194.24l-.69-17.72H245.3Zm-50.09-1H244.3V257.44H194.59Z" style="fill:#263238"></path><polygon points="297.39 294.63 248.14 294.63 248.14 311.35 296.74 311.35 297.39 294.63" style="fill:#fff"></polygon><path d="M297.22,311.84H247.64V294.13h50.27Zm-48.58-1h47.62l.61-15.71H248.64Z" style="fill:#263238"></path><path d="M248.14,236h51.55l.27-7s0-8.51-3.25-10.33c-2.88-1.62-40.18-3.48-48.57-3.88Z" style="fill:#fff"></path><path d="M300.17,236.47H247.64V214.25l.53,0c10.7.51,45.86,2.3,48.79,3.94,3.46,1.94,3.5,10.41,3.5,10.77Zm-51.53-1h50.57l.25-6.51c0-2.27-.54-8.5-3-9.88-2.16-1.21-27-2.79-47.83-3.78Z" style="fill:#263238"></path><polygon points="244.8 311.35 244.8 294.63 195.55 294.63 196.2 311.35 244.8 311.35" style="fill:#d1d1d1"></polygon><path d="M245.3,311.84H195.72L195,294.13H245.3Zm-48.62-1H244.3V295.13H196.07Z" style="fill:#263238"></path><path d="M244.8,236v-21.2c-8.39.4-45.69,2.26-48.57,3.88C193,220.47,193,229,193,229l.27,7Z" style="fill:#d1d1d1"></path><path d="M245.3,236.47H192.77l-.29-7.47c0-.38,0-8.85,3.5-10.79,2.92-1.64,38.09-3.43,48.79-3.94l.53,0Zm-51.57-1H244.3V215.3c-20.84,1-45.67,2.57-47.83,3.78-2.45,1.38-3,7.61-3,9.9Z" style="fill:#263238"></path><polygon points="248.14 275.79 248.14 292.5 297.48 292.5 298.13 275.79 248.14 275.79" style="fill:#fff"></polygon><path d="M298,293H247.64V275.29h51Zm-49.32-1H297l.61-15.71h-49Z" style="fill:#263238"></path><polygon points="248.14 313.47 248.14 335.33 295.82 334.75 296.66 313.47 248.14 313.47" style="fill:#fff"></polygon><path d="M247.64,335.84V313h49.54l-.88,22.27Zm1-21.87v20.86l46.7-.58.8-20.28Z" style="fill:#263238"></path><polygon points="244.8 313.47 196.28 313.47 197.12 334.75 244.8 335.33 244.8 313.47" style="fill:#d1d1d1"></polygon><path d="M245.3,335.84l-48.67-.6L195.76,313H245.3Zm-47.7-1.59,46.7.58V314H196.8Z" style="fill:#263238"></path><polygon points="248.14 256.94 248.14 273.66 298.21 273.66 298.87 256.94 248.14 256.94" style="fill:#fff"></polygon><path d="M298.69,274.16H247.64V256.44h51.75Zm-50.05-1h49.09l.62-15.72H248.64Z" style="fill:#263238"></path><polygon points="248.14 238.1 248.14 254.81 298.95 254.81 299.61 238.1 248.14 238.1" style="fill:#fff"></polygon><path d="M299.43,255.31H247.64V237.6h52.48Zm-50.79-1h49.83l.61-15.71H248.64Z" style="fill:#263238"></path><path d="M143.57,236.4S172,231.87,174.66,229s-23.59-5.67-17.69-11.9S233.09,199,233.09,199s-61.11,15.3-60,19.83,9.11-3.4,8.58,23.79-1.08,44.76-1.08,44.76Z" style="fill:#fff"></path><path d="M378.13,220.54s-11.9,4-18.13,12.46-5.1,16.43-5.1,16.43Z" style="fill:#fff"></path><path d="M353.2,228.47s-25.5,0-34.56-1.13-6.8,5.66-6.8,13,.57,19.26.57,19.26l7.36-10.2,27.76-4.53S352.07,230.74,353.2,228.47Z" style="fill:#fff"></path><path d="M429,353.19H67a12,12,0,0,1-12-12h0a12,12,0,0,1,12-12H429a12,12,0,0,1,12,12h0A12,12,0,0,1,429,353.19Z" style="fill:#fff"></path><path d="M429,353.69H67a12.54,12.54,0,1,1,0-25.07H429a12.54,12.54,0,1,1,0,25.07ZM67,329.62a11.54,11.54,0,1,0,0,23.07H429a11.54,11.54,0,1,0,0-23.07Z" style="fill:#263238"></path><path d="M426.76,341.1c-6.41-1.61-38.49-8.21-77.61,0s-40.44,1.09-78.52-3.56-66.5,1.55-98.33,6.72-51.15-2.07-84.11-4.65c-28.79-2.26-31.41.21-31.62.87,0,0,0,.1,0,.15h0c0,6,5.35,10.85,11.94,10.85H427.44c6.4,0,11.62-4.59,11.9-10.35C435.29,341.63,430.17,342,426.76,341.1Z" style="fill:#263238"></path><path d="M427.44,352H68.5c-6.86,0-12.44-5.09-12.44-11.35l0-.3c.73-2.35,12.14-2.79,32.14-1.22,10.47.82,19.44,2.09,28.11,3.32,18.36,2.6,34.23,4.85,55.88,1.33,3.64-.59,7.22-1.19,10.79-1.79,27.7-4.65,53.87-9.05,87.68-4.92,11.43,1.39,19.72,3,26.39,4.37,15.91,3.17,24.68,4.92,52-.81,41.18-8.63,74.2-.9,77.83,0,3.4.85,8.62.48,12.4,0l.59-.07,0,.6C439.54,347.23,434.09,352,427.44,352ZM57.07,340.6c0,5.74,5.13,10.38,11.43,10.38H427.44c5.9,0,10.77-4,11.36-9.28-3.81.43-8.8.73-12.16-.11-3.61-.91-36.43-8.59-77.38,0-27.49,5.77-36.33,4-52.38.81-6.64-1.32-14.91-3-26.31-4.36-33.66-4.11-59.76.28-87.4,4.92q-5.34.9-10.79,1.79c-21.8,3.54-37.73,1.28-56.18-1.33-8.66-1.23-17.61-2.49-28-3.31C60,337.9,57.3,340.29,57.07,340.6Z" style="fill:#263238"></path><rect x="178.37" y="335.24" width="130.01" height="26.26" style="fill:#fff"></rect><path d="M308.88,362h-131V334.74h131Zm-130-1h129V335.74h-129Z" style="fill:#263238"></path><path d="M114.68,370.7h0a6.35,6.35,0,0,1-6.35-6.35V302.19a6.34,6.34,0,0,1,6.35-6.34h0a6.34,6.34,0,0,1,6.34,6.34v62.16A6.34,6.34,0,0,1,114.68,370.7Z" style="fill:#fff"></path><path d="M114.68,371.2a6.85,6.85,0,0,1-6.85-6.85V302.19a6.85,6.85,0,0,1,13.69,0v62.16A6.85,6.85,0,0,1,114.68,371.2Zm0-74.85a5.85,5.85,0,0,0-5.85,5.84v62.16a5.85,5.85,0,1,0,11.69,0V302.19A5.85,5.85,0,0,0,114.68,296.35Z" style="fill:#263238"></path><rect x="373.6" y="295.85" width="12.69" height="74.85" rx="6.35" style="fill:#fff"></rect><path d="M380,371.2a6.85,6.85,0,0,1-6.85-6.85V302.19a6.85,6.85,0,0,1,13.69,0v62.16A6.85,6.85,0,0,1,380,371.2Zm0-74.85a5.85,5.85,0,0,0-5.85,5.84v62.16a5.85,5.85,0,1,0,11.69,0V302.19A5.85,5.85,0,0,0,380,296.35Z" style="fill:#263238"></path></g></svg>